<mxfile host="app.diagrams.net" modified="2023-04-21T10:07:11.786Z" agent="Mozilla/5.0 (Windows NT 10.0; Win64; x64) AppleWebKit/537.36 (KHTML, like Gecko) Chrome/112.0.0.0 Safari/537.36" etag="YBD5ujLkvx5QpFEyJao_" version="21.2.1" type="github">
  <diagram name="Page-1" id="CLfAcVKPEiOzKYexaF_U">
    <mxGraphModel dx="1434" dy="796" grid="1" gridSize="10" guides="1" tooltips="1" connect="1" arrows="1" fold="1" page="1" pageScale="1" pageWidth="827" pageHeight="1169" math="0" shadow="0">
      <root>
        <mxCell id="0" />
        <mxCell id="1" parent="0" />
        <mxCell id="rHajH1cTKnnIjcCZE3Sf-2" value="Rebranding Git branch" style="ellipse;whiteSpace=wrap;html=1;" parent="1" vertex="1">
          <mxGeometry x="210" y="250" width="120" height="80" as="geometry" />
        </mxCell>
        <mxCell id="rHajH1cTKnnIjcCZE3Sf-12" value="" style="edgeStyle=orthogonalEdgeStyle;rounded=0;orthogonalLoop=1;jettySize=auto;html=1;" parent="1" source="rHajH1cTKnnIjcCZE3Sf-4" target="rHajH1cTKnnIjcCZE3Sf-2" edge="1">
          <mxGeometry relative="1" as="geometry" />
        </mxCell>
        <mxCell id="rHajH1cTKnnIjcCZE3Sf-4" value="Matt" style="ellipse;whiteSpace=wrap;html=1;" parent="1" vertex="1">
          <mxGeometry x="370" y="265" width="50" height="50" as="geometry" />
        </mxCell>
        <mxCell id="rHajH1cTKnnIjcCZE3Sf-9" value="" style="edgeStyle=orthogonalEdgeStyle;rounded=0;orthogonalLoop=1;jettySize=auto;html=1;" parent="1" source="rHajH1cTKnnIjcCZE3Sf-5" target="rHajH1cTKnnIjcCZE3Sf-2" edge="1">
          <mxGeometry relative="1" as="geometry" />
        </mxCell>
        <mxCell id="rHajH1cTKnnIjcCZE3Sf-5" value="Alex" style="ellipse;whiteSpace=wrap;html=1;aspect=fixed;" parent="1" vertex="1">
          <mxGeometry x="245" y="350" width="50" height="50" as="geometry" />
        </mxCell>
        <mxCell id="rHajH1cTKnnIjcCZE3Sf-8" value="" style="edgeStyle=orthogonalEdgeStyle;rounded=0;orthogonalLoop=1;jettySize=auto;html=1;" parent="1" source="rHajH1cTKnnIjcCZE3Sf-6" target="rHajH1cTKnnIjcCZE3Sf-2" edge="1">
          <mxGeometry relative="1" as="geometry" />
        </mxCell>
        <mxCell id="rHajH1cTKnnIjcCZE3Sf-6" value="Ravi" style="ellipse;whiteSpace=wrap;html=1;aspect=fixed;" parent="1" vertex="1">
          <mxGeometry x="120" y="265" width="50" height="50" as="geometry" />
        </mxCell>
        <mxCell id="mnchiay1jCUi6SlzNa0X-1" value="Test" style="whiteSpace=wrap;html=1;aspect=fixed;" vertex="1" parent="1">
          <mxGeometry x="140" y="40" width="80" height="80" as="geometry" />
        </mxCell>
        <mxCell id="mnchiay1jCUi6SlzNa0X-2" value="QA" style="whiteSpace=wrap;html=1;aspect=fixed;" vertex="1" parent="1">
          <mxGeometry x="310" y="40" width="80" height="80" as="geometry" />
        </mxCell>
        <mxCell id="mnchiay1jCUi6SlzNa0X-3" value="Develop Git Branch" style="ellipse;whiteSpace=wrap;html=1;" vertex="1" parent="1">
          <mxGeometry x="125" y="400" width="120" height="80" as="geometry" />
        </mxCell>
        <mxCell id="mnchiay1jCUi6SlzNa0X-5" value="" style="endArrow=classic;html=1;rounded=0;entryX=0.5;entryY=0;entryDx=0;entryDy=0;" edge="1" parent="1" target="mnchiay1jCUi6SlzNa0X-3">
          <mxGeometry width="50" height="50" relative="1" as="geometry">
            <mxPoint x="230" y="320" as="sourcePoint" />
            <mxPoint x="280" y="270" as="targetPoint" />
          </mxGeometry>
        </mxCell>
        <mxCell id="mnchiay1jCUi6SlzNa0X-6" value="Branch from Develop once web accessibilty is in Prod" style="text;html=1;strokeColor=none;fillColor=none;align=center;verticalAlign=middle;whiteSpace=wrap;rounded=0;" vertex="1" parent="1">
          <mxGeometry x="30" y="380" width="110" height="30" as="geometry" />
        </mxCell>
        <mxCell id="mnchiay1jCUi6SlzNa0X-9" value="" style="endArrow=classic;html=1;rounded=0;entryX=0.5;entryY=1;entryDx=0;entryDy=0;" edge="1" parent="1" target="mnchiay1jCUi6SlzNa0X-1">
          <mxGeometry width="50" height="50" relative="1" as="geometry">
            <mxPoint x="260" y="250" as="sourcePoint" />
            <mxPoint x="310" y="200" as="targetPoint" />
          </mxGeometry>
        </mxCell>
        <mxCell id="mnchiay1jCUi6SlzNa0X-10" value="" style="endArrow=classic;html=1;rounded=0;entryX=0.5;entryY=1;entryDx=0;entryDy=0;" edge="1" parent="1" target="mnchiay1jCUi6SlzNa0X-2">
          <mxGeometry width="50" height="50" relative="1" as="geometry">
            <mxPoint x="310" y="260" as="sourcePoint" />
            <mxPoint x="360" y="210" as="targetPoint" />
          </mxGeometry>
        </mxCell>
        <mxCell id="mnchiay1jCUi6SlzNa0X-11" value="Move into Test when a logical group of work has been completed" style="text;html=1;strokeColor=none;fillColor=none;align=center;verticalAlign=middle;whiteSpace=wrap;rounded=0;" vertex="1" parent="1">
          <mxGeometry x="50" y="140" width="130" height="30" as="geometry" />
        </mxCell>
        <mxCell id="mnchiay1jCUi6SlzNa0X-12" value="Move into QA when all work is complete" style="text;html=1;strokeColor=none;fillColor=none;align=center;verticalAlign=middle;whiteSpace=wrap;rounded=0;" vertex="1" parent="1">
          <mxGeometry x="366" y="130" width="95" height="30" as="geometry" />
        </mxCell>
        <mxCell id="mnchiay1jCUi6SlzNa0X-27" value="" style="edgeStyle=orthogonalEdgeStyle;rounded=0;orthogonalLoop=1;jettySize=auto;html=1;" edge="1" parent="1" source="mnchiay1jCUi6SlzNa0X-13" target="mnchiay1jCUi6SlzNa0X-26">
          <mxGeometry relative="1" as="geometry" />
        </mxCell>
        <mxCell id="mnchiay1jCUi6SlzNa0X-13" value="Rebranding Git branch" style="ellipse;whiteSpace=wrap;html=1;" vertex="1" parent="1">
          <mxGeometry x="320" y="710" width="120" height="80" as="geometry" />
        </mxCell>
        <mxCell id="mnchiay1jCUi6SlzNa0X-16" value="&lt;h1&gt;Git and Release Process For Rebranding&lt;/h1&gt;&lt;p&gt;&lt;br&gt;&lt;/p&gt;" style="text;html=1;strokeColor=none;fillColor=none;spacing=5;spacingTop=-20;whiteSpace=wrap;overflow=hidden;rounded=0;" vertex="1" parent="1">
          <mxGeometry x="550" y="130" width="190" height="100" as="geometry" />
        </mxCell>
        <mxCell id="mnchiay1jCUi6SlzNa0X-17" value="&lt;h1&gt;Rebranding - Git Queue Jumping&lt;/h1&gt;" style="text;html=1;strokeColor=none;fillColor=none;spacing=5;spacingTop=-20;whiteSpace=wrap;overflow=hidden;rounded=0;" vertex="1" parent="1">
          <mxGeometry x="610" y="510" width="190" height="90" as="geometry" />
        </mxCell>
        <mxCell id="mnchiay1jCUi6SlzNa0X-34" value="" style="edgeStyle=orthogonalEdgeStyle;rounded=0;orthogonalLoop=1;jettySize=auto;html=1;" edge="1" parent="1" source="mnchiay1jCUi6SlzNa0X-18" target="mnchiay1jCUi6SlzNa0X-32">
          <mxGeometry relative="1" as="geometry" />
        </mxCell>
        <mxCell id="mnchiay1jCUi6SlzNa0X-18" value="Hot Fix&amp;nbsp;" style="ellipse;whiteSpace=wrap;html=1;" vertex="1" parent="1">
          <mxGeometry x="630" y="670" width="120" height="80" as="geometry" />
        </mxCell>
        <mxCell id="mnchiay1jCUi6SlzNa0X-19" value="Production" style="whiteSpace=wrap;html=1;aspect=fixed;" vertex="1" parent="1">
          <mxGeometry x="370" y="545" width="80" height="80" as="geometry" />
        </mxCell>
        <mxCell id="mnchiay1jCUi6SlzNa0X-20" value="" style="endArrow=classic;html=1;rounded=0;" edge="1" parent="1" target="mnchiay1jCUi6SlzNa0X-19">
          <mxGeometry width="50" height="50" relative="1" as="geometry">
            <mxPoint x="630" y="710" as="sourcePoint" />
            <mxPoint x="680" y="660" as="targetPoint" />
          </mxGeometry>
        </mxCell>
        <mxCell id="mnchiay1jCUi6SlzNa0X-22" value="Production" style="whiteSpace=wrap;html=1;aspect=fixed;" vertex="1" parent="1">
          <mxGeometry x="75" y="630" width="80" height="80" as="geometry" />
        </mxCell>
        <mxCell id="mnchiay1jCUi6SlzNa0X-23" value="" style="endArrow=classic;html=1;rounded=0;entryX=1;entryY=0.5;entryDx=0;entryDy=0;exitX=0;exitY=0.5;exitDx=0;exitDy=0;" edge="1" parent="1" source="mnchiay1jCUi6SlzNa0X-13" target="mnchiay1jCUi6SlzNa0X-22">
          <mxGeometry width="50" height="50" relative="1" as="geometry">
            <mxPoint x="330" y="780" as="sourcePoint" />
            <mxPoint x="430" y="730" as="targetPoint" />
            <Array as="points" />
          </mxGeometry>
        </mxCell>
        <mxCell id="mnchiay1jCUi6SlzNa0X-24" value="We take the hot fix into our branch" style="text;html=1;strokeColor=none;fillColor=none;align=center;verticalAlign=middle;whiteSpace=wrap;rounded=0;" vertex="1" parent="1">
          <mxGeometry x="400" y="800" width="100" height="30" as="geometry" />
        </mxCell>
        <mxCell id="mnchiay1jCUi6SlzNa0X-25" value="Some time later we release" style="text;html=1;strokeColor=none;fillColor=none;align=center;verticalAlign=middle;whiteSpace=wrap;rounded=0;" vertex="1" parent="1">
          <mxGeometry x="190" y="655" width="90" height="30" as="geometry" />
        </mxCell>
        <mxCell id="mnchiay1jCUi6SlzNa0X-26" value="QA" style="whiteSpace=wrap;html=1;" vertex="1" parent="1">
          <mxGeometry x="200" y="930" width="110" height="80" as="geometry" />
        </mxCell>
        <mxCell id="mnchiay1jCUi6SlzNa0X-28" value="The hot fix needs to be tested&amp;nbsp;" style="text;html=1;strokeColor=none;fillColor=none;align=center;verticalAlign=middle;whiteSpace=wrap;rounded=0;" vertex="1" parent="1">
          <mxGeometry x="250" y="840" width="90" height="30" as="geometry" />
        </mxCell>
        <mxCell id="mnchiay1jCUi6SlzNa0X-29" value="Goes into Production and works fine" style="text;html=1;strokeColor=none;fillColor=none;align=center;verticalAlign=middle;whiteSpace=wrap;rounded=0;" vertex="1" parent="1">
          <mxGeometry x="520" y="600" width="60" height="30" as="geometry" />
        </mxCell>
        <mxCell id="mnchiay1jCUi6SlzNa0X-30" value="" style="endArrow=none;dashed=1;html=1;rounded=0;" edge="1" parent="1">
          <mxGeometry width="50" height="50" relative="1" as="geometry">
            <mxPoint x="10" y="490" as="sourcePoint" />
            <mxPoint x="820" y="490" as="targetPoint" />
          </mxGeometry>
        </mxCell>
        <mxCell id="mnchiay1jCUi6SlzNa0X-36" value="" style="edgeStyle=orthogonalEdgeStyle;rounded=0;orthogonalLoop=1;jettySize=auto;html=1;" edge="1" parent="1" source="mnchiay1jCUi6SlzNa0X-32" target="mnchiay1jCUi6SlzNa0X-13">
          <mxGeometry relative="1" as="geometry" />
        </mxCell>
        <mxCell id="mnchiay1jCUi6SlzNa0X-32" value="develop" style="ellipse;whiteSpace=wrap;html=1;" vertex="1" parent="1">
          <mxGeometry x="630" y="800" width="120" height="80" as="geometry" />
        </mxCell>
      </root>
    </mxGraphModel>
  </diagram>
</mxfile>
